<svg xmlns="http://www.w3.org/2000/svg" height="218.74" width="687.88"><defs><clipPath id="a"><path d="M2384.88 198.43C2384.88 88.84 2296.04 0 2186.46 0H198.42C88.84 0 0 88.84 0 198.43V1541.5c0 109.58 88.84 198.42 198.42 198.42h1988.04c109.58 0 198.42-88.84 198.42-198.42V198.43z"/></clipPath><clipPath id="b"><path d="M2384.88 198.43C2384.88 88.84 2296.04 0 2186.46 0H198.42C88.84 0 0 88.84 0 198.43V1541.5c0 109.58 88.84 198.42 198.42 198.42h1988.04c109.58 0 198.42-88.84 198.42-198.42V198.43z"/></clipPath><clipPath id="c"><path d="M389 1518.02h1700.06V-512.01H389v2030.03z"/></clipPath></defs><path d="M687.88 193.82a24.8 24.8 0 0 1-24.8 24.8H29.18a24.8 24.8 0 0 1-24.8-24.8V24.8A24.8 24.8 0 0 1 29.18 0h633.9a24.8 24.8 0 0 1 24.8 24.8v169.02" fill="#100f0d"/><text style="-inkscape-font-specification:ArialMT" transform="matrix(1.25 0 0 1.25 319.04 171.87)" font-weight="400" font-size="75" font-family="Arial" fill="#fff"><tspan y="0" x="0 50.025002 91.724998 133.425 158.39999 200.10001 216.75">Android</tspan></text><g clip-path="url(#a)" fill="#9fc732" transform="matrix(.13 0 0 -.13 0 218.74)"><path d="M1750.92 847.74H725.6a41.29 41.29 0 0 1-41.27-41.28V-53.36a41.3 41.3 0 0 1 41.27-41.31h182.8v-289.74c0-67.25 54.51-121.76 121.73-121.76 67.24 0 121.74 54.51 121.74 121.76v289.74h170.27v-289.74c0-67.25 54.51-121.76 121.73-121.76 67.24 0 121.73 54.51 121.73 121.76v289.74h185.32a41.3 41.3 0 0 1 41.31 41.31v859.82a41.3 41.3 0 0 1-41.31 41.28M510.74 847.96c-67.22 0-121.74-54.52-121.74-121.74V231.75c0-67.21 54.5-121.71 121.74-121.71 67.21 0 121.72 54.5 121.72 121.71v494.47c0 67.23-54.5 121.74-121.72 121.74"/></g><g clip-path="url(#b)" transform="matrix(.13 0 0 -.13 0 218.74)"><g clip-path="url(#c)" fill="#9fc732"><path d="M1965.82 847.96c-67.25 0-121.74-54.52-121.74-121.74V231.75c0-67.21 54.49-121.71 121.74-121.71 67.22 0 121.73 54.5 121.73 121.71v494.47c0 67.23-54.51 121.74-121.73 121.74M983.57 1186.16a46.8 46.8 0 1 0 0-93.59 46.8 46.8 0 0 0 0 93.59zm553.75-46.8a46.8 46.8 0 1 0-93.55 0 46.8 46.8 0 0 0 93.55 0zm-803.4-231.3h1006.3c26.23 0 45.82 24.17 40.41 49.88-33.27 158.63-134.26 292.33-271.33 369.57l86.02 155.19a21.74 21.74 0 0 1-8.48 29.57 21.72 21.72 0 0 1-29.57-8.47l-86.67-156.37a553.55 553.55 0 0 1-233.52 51.33 553.44 553.44 0 0 1-233.54-51.33l-86.69 156.39a21.76 21.76 0 0 1-38.05-21.09l86.02-155.22c-137.04-77.24-238.07-210.94-271.34-369.57-5.4-25.7 14.19-49.88 40.44-49.88"/></g></g><text style="-inkscape-font-specification:ArialMT" transform="matrix(1.25 0 0 1.25 318.9 80)" font-weight="400" font-size="35" font-family="Arial" fill="#fff"><tspan y="0" x="0 25.27 44.73 70 89.459999 97.230003 116.69 136.14999 155.61 165.34048 175.103 194.56349">Download for</tspan></text></svg>